HIERARCHY
ROOT ui
{
	 OFFSET 0 0 0
	 CHANNELS 3 XPosition YPosition Z Position
	 EndSite
	 {
	 OFFSET 0 -1 0
	 }
}
ROOT li
{
	 OFFSET 0 0 0
	 CHANNELS 3 XPosition YPosition Z Position
	 EndSite
	 {
	 OFFSET 0 -1 0
	 }
}
ROOT ul
{
	 OFFSET 0 0 0
	 CHANNELS 3 XPosition YPosition Z Position
	 EndSite
	 {
	 OFFSET 0 -1 0
	 }
}
ROOT ll
{
	 OFFSET 0 0 0
	 CHANNELS 3 XPosition YPosition Z Position
	 EndSite
	 {
	 OFFSET 0 -1 0
	 }
}
ROOT tt
{
	 OFFSET 0 0 0
	 CHANNELS 3 XPosition YPosition Z Position
	 EndSite
	 {
	 OFFSET 0 -1 0
	 }
}
ROOT tb
{
	 OFFSET 0 0 0
	 CHANNELS 3 XPosition YPosition Z Position
	 EndSite
	 {
	 OFFSET 0 -1 0
	 }
}
ROOT td
{
	 OFFSET 0 0 0
	 CHANNELS 3 XPosition YPosition Z Position
	 EndSite
	 {
	 OFFSET 0 -1 0
	 }
}
ROOT v
{
	 OFFSET 0 0 0
	 CHANNELS 3 XPosition YPosition Z Position
	 EndSite
	 {
	 OFFSET 0 -1 0
	 }
}
ROOT bn
{
	 OFFSET 0 0 0
	 CHANNELS 3 XPosition YPosition Z Position
	 EndSite
	 {
	 OFFSET 0 -1 0
	 }
}
MOTION
Frames: 11
Frame Time: 0.002
0.002259666919708252	-0.0013136500120162964	0		0.49336163330078125	-2.445585205078125	0		-1.1443228759765625	0.03608402252197265	0		-0.6784794921875	-2.70585693359375	0		1.3644254150390625	-0.6988612060546875	0		3.05800634765625	0.09900550079345703	0		4.6078935546875	0.2898647155761719	0		5.608158203125	0.14968672180175782	0		-0.385277587890625	5.83882421875	0		
-0.04692870330810547	0.008082110404968262	0		0.47012384033203125	-2.44354931640625	0		-1.141645751953125	0.03571340560913086	0		-0.6597730712890625	-2.708445556640625	0		1.3640758056640625	-0.7021341552734375	0		3.058867919921875	0.11175347137451172	0		4.6105654296875	0.289619140625	0		5.60240966796875	0.18070413208007813	0		-0.3695567321777344	5.850283203125	0		
0.002657433032989502	0.002058598041534424	0		0.4967654113769531	-2.44923388671875	0		-1.2139765625	0.03640473175048828	0		-0.6892625732421875	-2.723355224609375	0		1.3637109375	-0.70541455078125	0		3.058442626953125	0.10551007843017578	0		4.61322119140625	0.2893659973144531	0		5.6120029296875	0.15408074951171874	0		-0.3811622314453125	5.840123046875	0		
-0.0407817268371582	-0.0016404789686203002	0		0.45842086791992187	-2.44999365234375	0		-1.1863525390625	0.036668575286865235	0		-0.6808052978515625	-2.73880810546875	0		1.3663392333984374	-0.7057396850585937	0		3.03107080078125	0.10664810180664062	0		4.6137998046875	0.2871390380859375	0		5.61035400390625	0.16244393920898437	0		-0.36354736328125	5.8485458984375	0		
-0.002107754945755005	0.007495885848999024	0		0.4650777893066406	-2.445391845703125	0		-1.1797613525390624	0.040236587524414065	0		-0.6782130737304688	-2.73917236328125	0		1.3927021484375	-0.7194012451171875	0		3.079713134765625	0.11370626068115235	0		4.61632958984375	0.2868846130371094	0		5.6121650390625	0.16203582763671875	0		-0.35819036865234377	5.84414599609375	0		
-0.033641792297363284	0.00963685703277588	0		0.48261514282226564	-2.441937255859375	0		-1.102349609375	0.037807804107666015	0		-0.6488982543945313	-2.751908935546875	0		1.37133740234375	-0.7063760375976562	0		3.0633740234375	0.12969317626953125	0		4.6148720703125	0.29468948364257813	0		5.6168271484375	0.1736422119140625	0		-0.3597989501953125	5.84885400390625	0		
-0.007499837875366211	-0.00303184700012207	0		0.4809022521972656	-2.44720068359375	0		-1.175013916015625	0.03952235794067383	0		-0.6906300048828125	-2.758625	0		1.3675657958984375	-0.7135952758789063	0		3.051517822265625	0.11761760711669922	0		4.6271806640625	0.29429977416992187	0		5.61904150390625	0.147268798828125	0		-0.3717275390625	5.83871826171875	0		
-0.036244434356689455	0.0020919060707092286	0		0.50704638671875	-2.45284765625	0		-1.1728330078125	0.03919051361083985	0		-0.64868115234375	-2.778514404296875	0		1.3677012939453126	-0.7178611450195312	0		3.043599365234375	0.11049003601074218	0		4.6152744140625	0.2882518615722656	0		5.61001220703125	0.1662601013183594	0		-0.3696316833496094	5.83839794921875	0		
-0.008207090377807617	0.001425158977508545	0		0.4691025390625	-2.453574462890625	0		-1.1626953125	0.045765567779541015	0		-0.6757782592773437	-2.790408203125	0		1.3815638427734376	-0.7313134155273437	0		3.07563525390625	0.10979974365234375	0		4.6213955078125	0.29394570922851565	0		5.61564697265625	0.14840086364746094	0		-0.48779800415039065	5.828794921875	0		
0.004715132236480713	0.0029883980751037598	0		0.5259927368164062	-2.45563037109375	0		-1.1567584228515626	0.048420761108398436	0		-0.6409404296875	-2.796159423828125	0		1.38651953125	-0.7276288452148437	0		3.0478154296875	0.12995965576171875	0		4.62248681640625	0.30770538330078123	0		5.619921875	0.15998324584960938	0		-0.350668701171875	5.846599609375	0		
0.0015358610153198243	0.007796067237854004	0		0.47379229736328127	-2.452129150390625	0		-1.155009033203125	0.048157154083251955	0		-0.6452868041992188	-2.803337158203125	0		1.3852135009765625	-0.7318472900390625	0		3.0743642578125	0.11534771728515625	0		4.635037109375	0.2932928771972656	0		5.6169921875	0.1769828186035156	0		-0.3499102783203125	5.8473505859375	0		
